<?xml version="1.0" encoding="UTF-8"?>
<svg xmlns="http://www.w3.org/2000/svg" xmlns:xlink="http://www.w3.org/1999/xlink" width="16px" height="16px" viewBox="0 0 16 16" version="1.1">
<g id="surface1">
<path style=" stroke:none;fill-rule:nonzero;fill:rgb(65.098039%,80.784314%,22.352941%);fill-opacity:1;" d="M 16 8 C 16 12.417969 12.417969 16 8 16 C 3.582031 16 0 12.417969 0 8 C 0 3.582031 3.582031 0 8 0 C 12.417969 0 16 3.582031 16 8 Z M 16 8 "/>
<path style=" stroke:none;fill-rule:nonzero;fill:rgb(100%,100%,100%);fill-opacity:1;" d="M 5.394531 11.636719 L 4.429688 11.636719 L 4.429688 4.945312 L 5.394531 4.945312 Z M 5.394531 11.636719 "/>
<path style=" stroke:none;fill-rule:nonzero;fill:rgb(100%,100%,100%);fill-opacity:1;" d="M 6.804688 4.945312 L 9.40625 4.945312 C 11.882812 4.945312 12.96875 6.710938 12.96875 8.292969 C 12.96875 10.011719 11.625 11.644531 9.417969 11.644531 L 6.804688 11.644531 Z M 7.769531 10.773438 L 9.300781 10.773438 C 11.480469 10.773438 11.980469 9.117188 11.980469 8.292969 C 11.980469 6.949219 11.125 5.8125 9.25 5.8125 L 7.769531 5.8125 Z M 7.769531 10.773438 "/>
<path style=" stroke:none;fill-rule:nonzero;fill:rgb(100%,100%,100%);fill-opacity:1;" d="M 5.542969 3.550781 C 5.542969 3.894531 5.261719 4.179688 4.914062 4.179688 C 4.5625 4.179688 4.28125 3.894531 4.28125 3.550781 C 4.28125 3.199219 4.5625 2.917969 4.914062 2.917969 C 5.261719 2.917969 5.542969 3.207031 5.542969 3.550781 Z M 5.542969 3.550781 "/>
</g>
</svg>
